<svg width="261" height="70" viewBox="0 0 261 70" fill="none" xmlns="http://www.w3.org/2000/svg">
<g clip-path="url(#clip0_10_42)">
<path fill-rule="evenodd" clip-rule="evenodd" d="M39.8742 12.0571C34.2616 8.88404 25.4251 7.38641 20.4777 7.51279C15.5293 7.63791 10.5905 9.38482 7.81617 15.1796C3.03704 25.1678 -1.55277 49.7437 0.342057 60.9072C2.16996 71.6793 15.9985 72.9003 19.5867 62.8121C21.8529 56.44 20.1574 46.6083 19.1607 39.9048L20.8541 39.6467C21.9226 47.0363 24.1089 61.3753 29.1536 66.8148C33.6945 71.7115 44.4849 70.9298 45.1937 62.562C45.5004 58.9522 44.0272 53.9622 40.8349 49.0813C37.5324 44.1167 33.0879 39.7896 28.8233 35.6376L30.051 34.4429C34.5877 38.7487 41.4177 44.4762 47.7011 39.5175C52.414 35.6069 54.444 28.9683 51.4899 23.3801C49.0222 18.71 44.4064 14.6845 39.8742 12.0571ZM255.508 2.03748C255.137 2.03748 254.835 1.73812 254.835 1.3694V1.36011C253.692 1.47733 252.673 2.01112 251.903 2.77631C250.976 3.69159 250.409 4.93841 250.409 6.19744C250.409 7.45133 250.922 8.58746 251.749 9.40924C252.576 10.2309 253.72 10.7396 254.984 10.7396C256.248 10.7396 257.392 10.2309 258.219 9.40924C259.047 8.58746 259.559 7.45133 259.559 6.19744C259.559 4.99209 259.128 3.94531 258.405 3.20717C257.691 2.47625 256.68 2.03748 255.508 2.03748ZM253.37 4.15172C253.764 4.15172 254.084 4.46898 254.084 4.86058C254.084 5.25289 253.764 5.57014 253.37 5.57014C252.975 5.57014 252.655 5.25289 252.655 4.86058C252.655 4.46898 252.975 4.15172 253.37 4.15172ZM256.598 4.15172C256.993 4.15172 257.313 4.46898 257.313 4.86058C257.313 5.25289 256.993 5.57014 256.598 5.57014C256.204 5.57014 255.884 5.25289 255.884 4.86058C255.884 4.46898 256.204 4.15172 256.598 4.15172ZM257.574 5.89877C257.574 5.53005 257.876 5.23069 258.247 5.23069C258.618 5.23069 258.919 5.53005 258.919 5.89877C258.919 6.97483 258.478 7.95156 257.767 8.6582C257.052 9.36707 256.069 9.80501 254.985 9.80501C253.901 9.80501 252.916 9.36706 252.204 8.66112C251.491 7.95156 251.049 6.97483 251.049 5.89877C251.049 5.53005 251.351 5.23069 251.722 5.23069C252.093 5.23069 252.395 5.53005 252.395 5.89877C252.395 6.60902 252.684 7.25352 253.152 7.71795C253.62 8.18239 254.269 8.46954 254.985 8.46954C255.701 8.46954 256.349 8.18239 256.817 7.71795C257.285 7.25352 257.574 6.60902 257.574 5.89877ZM255.979 0.720604C257.329 0.827835 258.503 1.39451 259.367 2.2783C260.331 3.26224 260.905 4.63475 260.905 6.19744C260.905 7.82005 260.241 9.29063 259.17 10.3538C258.1 11.4169 256.619 12.0757 254.984 12.0757C253.349 12.0757 251.869 11.4169 250.798 10.3538C249.727 9.29063 249.064 7.82005 249.064 6.19744C249.064 4.58328 249.781 2.99424 250.953 1.83314C252.065 0.725598 253.595 0.000366211 255.309 0.000366211C255.68 0.000366211 255.982 0.299864 255.982 0.668445L255.979 0.720604ZM145.459 20.0476C142.182 16.2871 136.807 11.9972 131.008 9.71068C125.21 7.42428 118.987 7.14268 114.261 9.83428C109.534 12.5259 106.303 18.1905 105.425 23.2622C103.545 34.12 114.29 45.5073 121.789 51.6992L120.637 53.1018C116.096 49.0791 106.997 37.7434 101.372 36.1557C97.9321 35.186 93.9021 35.4525 90.9264 37.794C87.9499 40.1363 86.0277 44.5526 87.8693 49.6129C89.7102 54.6723 95.3155 60.3749 102.253 64.1476C109.191 67.9202 117.461 69.7615 123.933 69.3986C130.405 69.0356 135.079 66.4669 137.857 63.1808C140.636 59.8954 141.519 55.8927 140.372 51.9264C137.959 43.5859 125.154 32.8117 118.315 27.6514L119.437 26.2125C125.728 31.61 136.088 42.5063 144.889 37.3211C147.726 35.6491 149.41 32.9582 149.663 29.998C149.915 27.0377 148.736 23.8073 145.459 20.0476ZM240.031 48.0066C237.881 42.7964 234.518 34.0157 231.584 26.1574C223.564 4.68122 244.621 0.572034 253.64 19.3545C259.663 31.8957 264.047 51.7293 253.968 63.3573C245.288 73.3713 232.786 71.0847 223.896 62.6378C215.617 54.7716 202.344 34.8089 205.401 22.885C207.483 14.7644 215.947 11.4419 222.485 17.4982C228.721 23.2744 234.882 40.2955 238.289 48.684L240.031 48.0066ZM55.874 37.276C54.326 29.2356 54.1814 22.905 54.8881 18.2971C55.5954 13.6884 57.1536 10.8039 60.15 9.17702C63.146 7.54858 67.5783 7.17847 70.6173 9.70638C73.6578 12.2344 75.305 17.6612 78.3182 26.2796C81.3321 34.8967 85.7104 46.7047 86.8999 54.2144C88.0895 61.7225 86.0904 64.9314 83.3039 66.9649C80.5167 68.9977 76.9429 69.8551 73.4829 69.3013C70.0207 68.7476 66.6723 66.7827 63.5224 60.9251C60.3732 55.0675 57.4219 45.3172 55.874 37.276ZM177.517 9.69209C170.38 12.5594 162.002 18.3456 155.661 26.2111C149.32 34.0764 145.016 44.0225 144.633 52.3895C144.25 60.7571 147.789 67.5479 155.399 69.4342C163.009 71.3206 174.693 68.3046 184.028 63.158C193.364 58.012 200.352 50.7368 203.353 44.6342C206.354 38.5314 205.367 33.6027 200.899 31.6621C196.432 29.7221 188.146 30.9075 182.04 33.3669C175.934 35.8262 167.791 42.4363 163.356 46.1289L162.17 44.7698C170.042 37.1617 181.905 31.202 190.18 24.9978C194.445 21.7996 197.048 18.5722 197.814 15.5561C198.581 12.5395 197.512 9.73426 194.03 8.3053C190.548 6.87758 184.653 6.82542 177.517 9.69209ZM36.9949 29.0626C35.2346 26.3354 32.7252 24.2847 29.8913 23.075C27.0415 21.8575 23.8635 21.4888 20.7922 22.1326L20.4431 20.4662C23.8665 19.7489 27.4027 20.1562 30.5685 21.5087C33.7075 22.8492 36.4876 25.1199 38.4377 28.1431L36.9949 29.0626Z" fill="#191919"/>
</g>
<defs>
<clipPath id="clip0_10_42">
<rect width="261" height="70" fill="white"/>
</clipPath>
</defs>
</svg>
