<svg width="50" height="33" viewBox="0 0 50 33" fill="none" xmlns="http://www.w3.org/2000/svg">
<g clip-path="url(#clip0_10_77)">
<path fill-rule="evenodd" clip-rule="evenodd" d="M13.4993 15.2131C14.8164 13.979 15.6638 12.2399 15.7285 10.2896C15.7493 9.6602 15.6861 9.04259 15.5488 8.44869C15.4162 7.87533 15.216 7.33148 14.9574 6.82704C14.7682 6.52651 14.6855 6.15737 14.7513 5.77991C14.8922 4.97157 15.6608 4.43056 16.4679 4.57166C17.4278 4.74048 18.3383 5.04554 19.1794 5.46526C20.0375 5.89351 20.827 6.44537 21.5258 7.09733C22.3963 7.90958 23.1229 8.8782 23.6633 9.95694C24.1893 11.0075 24.5341 12.1563 24.6579 13.3602C24.6689 13.4683 24.678 13.578 24.6848 13.6887C24.6886 13.7503 24.6937 13.8719 24.6999 14.0519C24.7025 14.1273 24.7031 14.2299 24.7019 14.3584C24.7006 14.4908 24.6978 14.6177 24.6939 14.7368C24.6725 15.3837 24.9127 15.976 25.3182 16.41C25.7237 16.8442 26.2958 17.1235 26.9378 17.1449C27.5836 17.1664 28.1749 16.9258 28.6085 16.5195C29.0418 16.1135 29.3207 15.5404 29.342 14.8973C29.3469 14.7501 29.3488 14.5992 29.3479 14.4461C29.347 14.2954 29.3426 14.1104 29.3352 13.8914C29.3321 13.7997 29.3225 13.6446 29.3069 13.4286C29.2922 13.2247 29.2772 13.049 29.2619 12.9011C28.9257 9.62975 27.5399 6.8262 25.5352 4.6802C23.9993 3.0359 22.0909 1.77107 20.0052 0.971783C17.9273 0.175556 15.6857 -0.151428 13.4749 0.076607C10.7465 0.357858 8.05221 1.48318 5.75617 3.61221C5.72734 3.64214 5.69704 3.67111 5.66526 3.69904C3.75261 5.37758 2.21672 7.51905 1.22289 9.93766C0.274401 12.2461 -0.177906 14.8105 0.0108444 17.4684C0.12258 19.0419 0.443793 20.5382 0.942078 21.9373C2.19568 25.4573 4.57064 28.3457 7.55477 30.287C10.5413 32.23 14.1399 33.2272 17.8376 32.9637C18.4367 32.9211 19.0392 32.8449 19.6428 32.7338L19.6098 32.72C18.4784 32.2619 17.6287 31.386 17.1701 30.3385C16.7068 29.2802 16.6446 28.0448 17.0966 26.8873C17.378 26.1665 17.8311 25.5547 18.3928 25.0807C18.5045 24.9864 18.6206 24.8978 18.7403 24.8151C18.3661 23.8327 18.2856 22.7304 18.5754 21.6469C18.5926 21.5619 18.617 21.4794 18.6479 21.4002C18.844 20.7885 19.1436 20.2379 19.521 19.7628C19.6495 19.6008 19.7871 19.4476 19.9326 19.3034C19.6531 18.5352 19.5522 17.6911 19.6743 16.8296C19.7976 15.9593 20.1272 15.1727 20.6058 14.5126C20.9077 14.096 21.2715 13.7279 21.6824 13.4189C21.5772 12.6613 21.3491 11.9415 21.0187 11.2813C20.643 10.5311 20.1292 9.84978 19.5076 9.26978C19.2218 9.00307 18.9117 8.75923 18.5806 8.54173C18.6702 9.13838 18.7071 9.75367 18.6862 10.3826C18.5943 13.1501 17.3899 15.6195 15.5174 17.374C13.6451 19.1285 11.1069 20.1678 8.34744 20.076C7.53078 20.0504 6.88941 19.3662 6.91497 18.5483C6.94054 17.7304 7.62358 17.088 8.44024 17.1136C10.3913 17.1786 12.182 16.4475 13.4993 15.2131ZM25.4135 19.8605C24.5413 19.5817 23.7694 19.0831 23.1607 18.4313C22.951 18.2069 22.7608 17.9644 22.5924 17.7067C22.6235 18.1387 22.7809 18.5435 23.0315 18.8772C23.3621 19.3171 23.8575 19.6351 24.4411 19.73L24.4508 19.7311C24.7579 19.7685 25.0802 19.8127 25.4135 19.8605ZM35.3617 8.27481L47.7635 8.27492C48.3682 8.27492 48.9155 8.02275 49.3113 7.61537C49.7173 7.19734 49.9686 6.61355 49.9686 5.96359C49.9686 5.31352 49.7173 4.72973 49.3113 4.3117C48.9155 3.90431 48.3682 3.65215 47.7635 3.65215V3.64635L28.5049 3.59303C29.6227 4.97505 30.5403 6.54505 31.1932 8.27492L35.3617 8.27481ZM30.6355 29.9086L30.6656 29.8229C28.3222 29.8023 25.8786 29.0687 23.7306 28.4235C23.1644 28.2534 22.6199 28.0898 22.266 27.99C22.1697 27.9726 22.0766 27.946 21.9878 27.9111C21.4573 27.7401 20.9722 27.4894 20.5416 27.176C20.4543 27.2245 20.3716 27.2814 20.295 27.3461C20.1094 27.5027 19.9566 27.7129 19.8571 27.9676C19.7024 28.3639 19.7245 28.7887 19.8842 29.1536C20.0393 29.508 20.3268 29.8055 20.7099 29.9637C20.9982 30.0701 21.508 30.2729 22.0411 30.4851C24.6294 31.5149 27.8993 32.8158 29.7852 31.1338L29.7875 31.1364L29.7968 31.128C30.1876 30.7858 30.4673 30.3657 30.6355 29.9086ZM34.3753 25.4539C34.9688 24.8356 35.322 24.082 35.4425 23.294C35.4821 23.0358 35.4972 22.774 35.4884 22.5123C32.5735 23.9176 28.8545 23.3692 25.7379 22.9096C25.169 22.8259 24.6226 22.7451 24.1028 22.6818C24.0667 22.6776 24.0311 22.6719 23.996 22.6652C23.1587 22.5341 22.3967 22.2041 21.7516 21.7302C21.6222 21.9182 21.5198 22.1292 21.4521 22.3589L21.4516 22.3607C21.2803 22.9438 21.3636 23.5442 21.6351 24.0419C21.9058 24.538 22.3654 24.9317 22.9474 25.1033L22.9469 25.1053C23.614 25.2879 24.0873 25.43 24.5774 25.5773C27.9114 26.5787 32.1221 27.8435 34.3636 25.4655L34.3753 25.4539ZM35.8407 18.4314C36.4918 17.5188 36.7042 16.4371 36.5278 15.4045C36.345 14.3349 35.7493 13.3146 34.7943 12.5746C34.6296 12.4516 33.9337 11.9291 33.4813 11.2489H32.0162C32.0967 11.6912 32.1611 12.1413 32.2081 12.5991C32.234 12.851 32.253 13.0584 32.2646 13.2195C32.2753 13.3682 32.2849 13.5611 32.2929 13.7985C32.2999 14.0053 32.3044 14.218 32.3056 14.4345C32.3069 14.6463 32.3049 14.8319 32.2997 14.9903C32.2513 16.4505 31.6154 17.7539 30.6267 18.6803C29.7014 19.5474 28.4694 20.0838 27.123 20.1093C30.361 20.5647 34.0884 20.8732 35.8055 18.4833L35.8407 18.4314Z" fill="white"/>
</g>
<defs>
<clipPath id="clip0_10_77">
<rect width="50" height="33" fill="white"/>
</clipPath>
</defs>
</svg>
