<?xml version="1.0" encoding="UTF-8"?>
<!DOCTYPE svg PUBLIC "-//W3C//DTD SVG 1.1//EN" "http://www.w3.org/Graphics/SVG/1.1/DTD/svg11.dtd">
<!-- Creator: CorelDRAW 2021 (64 Bit) -->
<svg xmlns="http://www.w3.org/2000/svg" xml:space="preserve" width="153.702mm" height="57.58mm" version="1.1" style="shape-rendering:geometricPrecision; text-rendering:geometricPrecision; image-rendering:optimizeQuality; fill-rule:evenodd; clip-rule:evenodd"
viewBox="0 0 15370.24 5758"
 xmlns:xlink="http://www.w3.org/1999/xlink"
 xmlns:xodm="http://www.corel.com/coreldraw/odm/2003">
 <defs>
  <style type="text/css">
   <![CDATA[
    .fil0 {fill:white;fill-rule:nonzero}
   ]]>
  </style>
 </defs>
 <g id="Camada_x0020_1">
  <metadata id="CorelCorpID_0Corel-Layer"/>
  <path class="fil0" d="M13138.22 5253.17c-55.7,334.33 -371.98,560.22 -706.31,504.52 -334.32,-55.7 -560.21,-371.98 -504.51,-706.31 105.12,-629.3 309.74,-1141.88 587.93,-1549.25l-11902.94 0c-339.65,0 -615,-275.36 -615,-615 0,-339.64 275.35,-615 615,-615l11902.94 0c-278.19,-407.37 -482.81,-919.95 -587.89,-1549.25 -55.7,-334.33 170.19,-650.61 504.52,-706.31 334.32,-55.7 650.61,170.19 706.31,504.52 98.23,588.33 302.77,1008.43 575.25,1286.49 279.59,285.29 646.34,431.73 1049.92,464.68 334.63,5.8 604.19,278.84 604.19,614.87 0,336.03 -269.56,609.07 -604.19,614.87 -403.58,32.95 -770.38,179.48 -1049.92,464.73 -272.53,278.06 -477.06,698.2 -575.3,1286.44z"/>
 </g>
</svg>
