<svg width="24" height="24" viewBox="0 0 24 24" fill="none" xmlns="http://www.w3.org/2000/svg">
<path d="M20.25 3.71265C18.075 1.53765 15.1125 0.337646 12.075 0.337646C5.7 0.337646 0.4875 5.51265 0.4875 11.8876C0.4875 13.9501 1.0125 15.9002 2.025 17.7002L0.375 23.6626L6.5625 22.0876C8.25 22.9876 10.1625 23.5127 12.1125 23.5127C18.45 23.4752 23.625 18.3001 23.625 11.8876C23.625 8.81265 22.425 5.92515 20.25 3.71265ZM12.0375 21.5251C10.35 21.5251 8.5875 21.0377 7.125 20.1377L6.75 19.9126L3.1125 20.8501L4.125 17.3252L3.9 16.9502C2.9625 15.4127 2.4375 13.6127 2.4375 11.8127C2.4375 6.52515 6.7125 2.25015 12.0375 2.25015C14.5875 2.25015 16.9875 3.26265 18.7875 5.06265C20.5875 6.86265 21.6 9.30015 21.6 11.8876C21.675 17.2501 17.325 21.5251 12.0375 21.5251ZM17.325 14.3252C17.025 14.1752 15.6375 13.4626 15.3 13.4251C15.0375 13.3126 14.8125 13.2752 14.6625 13.5752C14.5125 13.8752 13.9125 14.4752 13.7625 14.7002C13.6125 14.8502 13.4625 14.9251 13.125 14.7376C12.825 14.5876 11.925 14.3251 10.8 13.2751C9.9375 12.5251 9.3375 11.5877 9.225 11.2502C9.075 10.9502 9.1875 10.8377 9.375 10.6502C9.525 10.5002 9.675 10.3502 9.7875 10.1252C9.9375 9.97515 9.9375 9.82515 10.0875 9.63765C10.2375 9.48765 10.125 9.26265 10.05 9.11265C9.9375 8.96265 9.4125 7.53765 9.15 6.93765C8.925 6.33765 8.6625 6.45015 8.5125 6.45015C8.3625 6.45015 8.1375 6.45015 7.9875 6.45015C7.8375 6.45015 7.4625 6.48765 7.2375 6.82515C6.975 7.12515 6.225 7.83765 6.225 9.26265C6.225 10.6876 7.2375 12.0002 7.425 12.2627C7.575 12.4127 9.4875 15.3751 12.3375 16.6501C13.0125 16.9501 13.5375 17.1376 13.9875 17.2876C14.6625 17.5126 15.3 17.4376 15.7875 17.4001C16.35 17.3626 17.475 16.7252 17.7375 16.0127C17.9625 15.3752 17.9625 14.7377 17.8875 14.6252C17.8125 14.5502 17.5875 14.4377 17.325 14.3252Z" fill="black"/>
</svg>
